<svg width="24" height="24" viewBox="0 0 24 24" fill="none" xmlns="http://www.w3.org/2000/svg">
<path d="M12 1.25C12.3546 1.25 12.7167 1.35913 13.085 1.49805C13.4625 1.64046 13.9353 1.85092 14.5264 2.11328C15.3799 2.4922 16.4478 2.90648 17.6562 3.25C18.5551 3.50551 19.2805 3.71052 19.8281 3.92285C20.3708 4.1333 20.8631 4.39452 21.1943 4.83301C21.5151 5.25767 21.6386 5.75403 21.6953 6.28906C21.751 6.81468 21.75 7.47689 21.75 8.28027V11.1836C21.7499 14.2393 20.3703 16.6627 18.7031 18.4688C17.0411 20.2692 15.0609 21.4939 13.7559 22.1826C13.1709 22.4913 12.7085 22.75 12 22.75C11.2915 22.75 10.8291 22.4913 10.2441 22.1826C8.93908 21.4939 6.95892 20.2692 5.29688 18.4688C3.62968 16.6627 2.25007 14.2393 2.25 11.1836V8.28027C2.25 7.47689 2.24901 6.81468 2.30469 6.28906C2.36139 5.75403 2.48489 5.25767 2.80566 4.83301C3.13694 4.39452 3.62915 4.1333 4.17188 3.92285C4.71958 3.71048 5.44561 3.50558 6.34473 3.25C7.25073 2.99244 8.07725 2.69477 8.79395 2.40234L9.47363 2.1123C10.0645 1.85002 10.5376 1.64043 10.915 1.49805C11.2833 1.35913 11.6454 1.25 12 1.25ZM12 2.75C11.9307 2.75 11.7813 2.77428 11.4443 2.90137C11.1165 3.02503 10.6898 3.2136 10.082 3.4834C9.17711 3.88509 8.04326 4.32611 6.75488 4.69238C5.82666 4.95624 5.18088 5.1402 4.71387 5.32129C4.24233 5.50415 4.07583 5.64091 4.00293 5.7373C3.91967 5.84753 3.84024 6.02875 3.7959 6.44727C3.75055 6.87539 3.75 7.44366 3.75 8.28027V11.1836C3.75007 13.7526 4.90162 15.8296 6.39844 17.4512C7.90054 19.0784 9.71821 20.2094 10.9443 20.8564C11.5732 21.1883 11.7179 21.25 12 21.25C12.2821 21.25 12.4268 21.1883 13.0557 20.8564C14.2818 20.2094 16.0995 19.0784 17.6016 17.4512C19.0984 15.8296 20.2499 13.7526 20.25 11.1836V8.28027C20.25 7.44366 20.2495 6.87539 20.2041 6.44727C20.1598 6.02874 20.0803 5.84753 19.9971 5.7373C19.9242 5.64091 19.7577 5.50415 19.2861 5.32129C18.8192 5.14022 18.1741 4.95618 17.2461 4.69238C15.9575 4.32609 14.823 3.88516 13.918 3.4834C13.3102 3.2136 12.8835 3.02503 12.5557 2.90137C12.2187 2.77428 12.0693 2.75 12 2.75ZM15.5 7.75C15.9142 7.75 16.25 8.08579 16.25 8.5V14.5C16.25 14.9142 15.9142 15.25 15.5 15.25C15.0858 15.25 14.75 14.9142 14.75 14.5V8.5C14.75 8.08579 15.0858 7.75 15.5 7.75ZM10 7.75C10.6214 7.75 11.1736 8.14771 11.3701 8.7373H11.3691L13.2119 14.2627C13.3429 14.6557 13.1303 15.0809 12.7373 15.2119C12.3443 15.3429 11.9191 15.1303 11.7881 14.7373L11.292 13.25H8.70801L8.21191 14.7373C8.08093 15.1303 7.65565 15.3429 7.2627 15.2119C6.86974 15.0809 6.6571 14.6557 6.78809 14.2627L8.63086 8.7373L8.6709 8.62891C8.89567 8.09939 9.41737 7.75 10 7.75ZM9.20801 11.75H10.792L10 9.37305L9.20801 11.75Z" fill="url(#paint0_linear_1656_2432)"/>
<defs>
<linearGradient id="paint0_linear_1656_2432" x1="12" y1="1.25" x2="12" y2="22.75" gradientUnits="userSpaceOnUse">
<stop stop-color="#FFAB00"/>
<stop offset="1" stop-color="#FF5700"/>
</linearGradient>
</defs>
</svg>
